<svg width="18" height="20" viewBox="0 0 18 20" fill="none" xmlns="http://www.w3.org/2000/svg">
<g clip-path="url(#clip0_66_157)">
<path d="M10.9336 7.38001V10.4288C10.9336 10.5075 10.8774 10.5675 10.8035 10.5675H10.3465C10.3008 10.5675 10.2621 10.5413 10.241 10.5113L8.9297 8.62501V10.4325C8.9297 10.5113 8.87345 10.5713 8.79962 10.5713H8.34259C8.26876 10.5713 8.21251 10.5113 8.21251 10.4325V7.38376C8.21251 7.30501 8.26876 7.24501 8.34259 7.24501H8.7961C8.83477 7.24501 8.88048 7.26751 8.90157 7.30501L10.2129 9.19126V7.38376C10.2129 7.30501 10.2692 7.24501 10.343 7.24501H10.8C10.8738 7.24126 10.9336 7.30501 10.9336 7.37626V7.38001ZM7.63946 7.24126H7.18243C7.1086 7.24126 7.05235 7.30126 7.05235 7.38001V10.4288C7.05235 10.5075 7.1086 10.5675 7.18243 10.5675H7.63946C7.71329 10.5675 7.76954 10.5075 7.76954 10.4288V7.38001C7.76954 7.30876 7.71329 7.24126 7.63946 7.24126ZM6.53556 9.79501H5.28399V7.38001C5.28399 7.30126 5.22774 7.24126 5.15391 7.24126H4.69688C4.62305 7.24126 4.5668 7.30126 4.5668 7.38001V10.4288C4.5668 10.4663 4.57735 10.4963 4.60196 10.5225C4.62657 10.545 4.6547 10.56 4.68985 10.56H6.52501C6.59884 10.56 6.65509 10.5 6.65509 10.4213V9.93376C6.65509 9.86251 6.59884 9.79501 6.53204 9.79501H6.53556ZM13.3453 7.24126H11.5066C11.4399 7.24126 11.3766 7.30126 11.3766 7.38001V10.4288C11.3766 10.5 11.4328 10.5675 11.5066 10.5675H13.3418C13.4156 10.5675 13.4719 10.5075 13.4719 10.4288V9.93751C13.4719 9.85876 13.4156 9.79876 13.3418 9.79876H12.0938V9.28876H13.3418C13.4156 9.28876 13.4719 9.22876 13.4719 9.15001V8.65876C13.4719 8.58001 13.4156 8.52001 13.3418 8.52001H12.0938V8.00626H13.3418C13.4156 8.00626 13.4719 7.94626 13.4719 7.86751V7.38001C13.4684 7.30876 13.4121 7.24126 13.3418 7.24126H13.3453ZM18 3.50251V15.7275C17.9965 17.6475 16.5199 19.2038 14.7164 19.2H3.25548C1.45548 19.1963 -0.00350929 17.6175 6.34022e-06 15.6975V3.47251C0.00352197 1.55251 1.4836 -0.00374324 3.2836 6.7629e-06H14.7445C16.5445 0.00375676 18.0035 1.57876 18 3.50251ZM15.525 8.75626C15.525 5.62876 12.5824 3.08251 8.97188 3.08251C5.36134 3.08251 2.41876 5.62876 2.41876 8.75626C2.41876 11.5575 4.74962 13.9088 7.89962 14.355C8.66602 14.5313 8.57813 14.8313 8.40587 15.9338C8.37774 16.11 8.27227 16.6238 8.97188 16.3125C9.67149 16.0013 12.7442 13.9425 14.1223 12.255C15.0715 11.1413 15.525 10.0125 15.525 8.76376V8.75626Z" fill="#3EA1D1"/>
</g>
<defs>
<clipPath id="clip0_66_157">
<rect width="18" height="19.2" fill="white"/>
</clipPath>
</defs>
</svg>
